<mxfile host="app.diagrams.net" modified="2021-02-11T19:02:02.978Z" agent="5.0 (Windows NT 6.1; Win64; x64) AppleWebKit/537.36 (KHTML, like Gecko) Chrome/88.0.4324.150 Safari/537.36" etag="DeEVJdqNxHC89v9omwzm" version="14.3.1" type="github">
  <diagram id="-Zx19q2X50mo3WKFAo3r" name="Page-2">
    <mxGraphModel dx="1488" dy="844" grid="0" gridSize="10" guides="1" tooltips="1" connect="1" arrows="1" fold="1" page="1" pageScale="1" pageWidth="1654" pageHeight="2336" math="0" shadow="0">
      <root>
        <mxCell id="0" />
        <mxCell id="1" parent="0" />
        <mxCell id="BTvsy32CI3qm0bs2ILgs-5" style="edgeStyle=orthogonalEdgeStyle;curved=1;rounded=0;orthogonalLoop=1;jettySize=auto;html=1;exitX=0;exitY=0.5;exitDx=0;exitDy=0;entryX=0.5;entryY=0;entryDx=0;entryDy=0;" edge="1" parent="1" source="BTvsy32CI3qm0bs2ILgs-2" target="BTvsy32CI3qm0bs2ILgs-4">
          <mxGeometry relative="1" as="geometry" />
        </mxCell>
        <mxCell id="BTvsy32CI3qm0bs2ILgs-9" style="edgeStyle=orthogonalEdgeStyle;curved=1;rounded=0;orthogonalLoop=1;jettySize=auto;html=1;exitX=0.5;exitY=1;exitDx=0;exitDy=0;entryX=0.5;entryY=0;entryDx=0;entryDy=0;" edge="1" parent="1" source="BTvsy32CI3qm0bs2ILgs-2" target="BTvsy32CI3qm0bs2ILgs-6">
          <mxGeometry relative="1" as="geometry" />
        </mxCell>
        <mxCell id="BTvsy32CI3qm0bs2ILgs-2" value="&lt;font style=&quot;font-size: 24px&quot;&gt;O4099&lt;/font&gt;" style="rounded=1;whiteSpace=wrap;html=1;" vertex="1" parent="1">
          <mxGeometry x="320" y="70" width="120" height="60" as="geometry" />
        </mxCell>
        <mxCell id="BTvsy32CI3qm0bs2ILgs-10" style="edgeStyle=orthogonalEdgeStyle;curved=1;rounded=0;orthogonalLoop=1;jettySize=auto;html=1;exitX=1;exitY=0.5;exitDx=0;exitDy=0;entryX=0;entryY=0.5;entryDx=0;entryDy=0;fillColor=#d5e8d4;strokeColor=#82b366;strokeWidth=2;" edge="1" parent="1" source="BTvsy32CI3qm0bs2ILgs-4" target="BTvsy32CI3qm0bs2ILgs-6">
          <mxGeometry relative="1" as="geometry" />
        </mxCell>
        <mxCell id="BTvsy32CI3qm0bs2ILgs-11" value="T#520 M#513 E#508&lt;br&gt;X[#524 + 2.] Y#525&lt;br&gt;&amp;nbsp;Z[#526 + 2.]&amp;nbsp;" style="edgeLabel;html=1;align=center;verticalAlign=middle;resizable=0;points=[];labelBorderColor=#97D077;" vertex="1" connectable="0" parent="BTvsy32CI3qm0bs2ILgs-10">
          <mxGeometry x="-0.171" y="-7" relative="1" as="geometry">
            <mxPoint y="1" as="offset" />
          </mxGeometry>
        </mxCell>
        <mxCell id="BTvsy32CI3qm0bs2ILgs-15" style="edgeStyle=orthogonalEdgeStyle;curved=1;rounded=0;orthogonalLoop=1;jettySize=auto;html=1;exitX=0.5;exitY=1;exitDx=0;exitDy=0;entryX=0;entryY=0.5;entryDx=0;entryDy=0;strokeWidth=2;fillColor=#d5e8d4;strokeColor=#82b366;" edge="1" parent="1" source="BTvsy32CI3qm0bs2ILgs-4" target="BTvsy32CI3qm0bs2ILgs-12">
          <mxGeometry relative="1" as="geometry" />
        </mxCell>
        <mxCell id="BTvsy32CI3qm0bs2ILgs-16" value="X[#524 + 2.] F#509" style="edgeLabel;html=1;align=center;verticalAlign=middle;resizable=0;points=[];" vertex="1" connectable="0" parent="BTvsy32CI3qm0bs2ILgs-15">
          <mxGeometry x="0.1427" y="48" relative="1" as="geometry">
            <mxPoint as="offset" />
          </mxGeometry>
        </mxCell>
        <mxCell id="BTvsy32CI3qm0bs2ILgs-4" value="&lt;span style=&quot;font-size: 24px&quot;&gt;СТАРТОВЫЕ&lt;br&gt;ПАРАМЕТРЫ&lt;br&gt;&lt;/span&gt;" style="rounded=1;whiteSpace=wrap;html=1;" vertex="1" parent="1">
          <mxGeometry x="20" y="190" width="160" height="80" as="geometry" />
        </mxCell>
        <mxCell id="BTvsy32CI3qm0bs2ILgs-14" style="edgeStyle=orthogonalEdgeStyle;curved=1;rounded=0;orthogonalLoop=1;jettySize=auto;html=1;exitX=0.5;exitY=1;exitDx=0;exitDy=0;entryX=0.5;entryY=0;entryDx=0;entryDy=0;strokeWidth=2;" edge="1" parent="1" source="BTvsy32CI3qm0bs2ILgs-6" target="BTvsy32CI3qm0bs2ILgs-12">
          <mxGeometry relative="1" as="geometry" />
        </mxCell>
        <mxCell id="BTvsy32CI3qm0bs2ILgs-6" value="&lt;font style=&quot;font-size: 24px&quot;&gt;O4001&lt;/font&gt;" style="rounded=1;whiteSpace=wrap;html=1;" vertex="1" parent="1">
          <mxGeometry x="375" y="320" width="120" height="60" as="geometry" />
        </mxCell>
        <mxCell id="BTvsy32CI3qm0bs2ILgs-18" style="edgeStyle=orthogonalEdgeStyle;curved=1;rounded=0;orthogonalLoop=1;jettySize=auto;html=1;exitX=0.5;exitY=1;exitDx=0;exitDy=0;strokeWidth=2;" edge="1" parent="1" source="BTvsy32CI3qm0bs2ILgs-12" target="BTvsy32CI3qm0bs2ILgs-17">
          <mxGeometry relative="1" as="geometry" />
        </mxCell>
        <mxCell id="BTvsy32CI3qm0bs2ILgs-12" value="&lt;span style=&quot;font-size: 24px&quot;&gt;O4094&lt;/span&gt;" style="rounded=1;whiteSpace=wrap;html=1;" vertex="1" parent="1">
          <mxGeometry x="372" y="434" width="120" height="60" as="geometry" />
        </mxCell>
        <mxCell id="BTvsy32CI3qm0bs2ILgs-20" style="edgeStyle=orthogonalEdgeStyle;curved=1;rounded=0;orthogonalLoop=1;jettySize=auto;html=1;exitX=0.5;exitY=1;exitDx=0;exitDy=0;entryX=0.5;entryY=0;entryDx=0;entryDy=0;strokeWidth=2;" edge="1" parent="1" source="BTvsy32CI3qm0bs2ILgs-17" target="BTvsy32CI3qm0bs2ILgs-19">
          <mxGeometry relative="1" as="geometry" />
        </mxCell>
        <mxCell id="BTvsy32CI3qm0bs2ILgs-17" value="&lt;span style=&quot;font-size: 24px&quot;&gt;O4071&lt;/span&gt;" style="rounded=1;whiteSpace=wrap;html=1;" vertex="1" parent="1">
          <mxGeometry x="364" y="548" width="120" height="60" as="geometry" />
        </mxCell>
        <mxCell id="BTvsy32CI3qm0bs2ILgs-19" value="&lt;span style=&quot;font-size: 24px&quot;&gt;O4002&lt;/span&gt;" style="rounded=1;whiteSpace=wrap;html=1;" vertex="1" parent="1">
          <mxGeometry x="362" y="653" width="120" height="60" as="geometry" />
        </mxCell>
      </root>
    </mxGraphModel>
  </diagram>
</mxfile>
